<?xml version="1.0" encoding="UTF-8"?><svg id="Layer_1" xmlns="http://www.w3.org/2000/svg" viewBox="0 0 260 59"><defs><style>.cls-1{fill:#fff;}.cls-2{fill:#fd0;}</style></defs><g><path class="cls-2" d="M31.87,39c2.28,3.94,6.01,3.94,8.28,0l1.27-2.2-11.4-19.75h-10.82l12.67,21.95Z"/><path class="cls-2" d="M55.89,30.56c-.83,1.43-2.79,1.43-3.62,0l-7.81-13.51h-10.83l12.69,21.95c2.28,3.94,6,3.94,8.28,0l8.49-14.71-4.18-7.25h-10.82l7.8,13.52Z"/></g><g><path class="cls-1" d="M74.67,39.09h3.69l.03-.12c2.28-8.45,3.21-12.06,3.59-14.3,.37,2.23,1.26,5.89,3.44,14.3l.03,.12h3.77l5.25-19.32h-3.44l-.03,.12c-2.28,8.77-3.15,12.32-3.55,14.59-.46-2.43-1.45-6.44-3.58-14.59l-.03-.12h-3.59l-.03,.12c-2.22,8.69-3.15,12.41-3.55,14.82-.44-2.35-1.41-6.25-3.63-14.82l-.03-.12h-3.57l5.19,19.21,.04,.11Z"/><path class="cls-1" d="M100.31,39.36c2.79,0,5.43-1.52,6.49-3.79l-2.55-1.3h-.05s-.05,.09-.05,.09c-.31,.64-1.44,2.13-3.81,2.13-2.15,0-3.79-1.37-4.04-3.36h10.97v-.15c.07-2.71-.67-4.93-2.13-6.42-1.26-1.3-3.01-1.98-5.04-1.98s-3.84,.76-5.15,2.13c-1.3,1.36-2.02,3.24-2.02,5.28,0,4.34,3.04,7.37,7.38,7.37Zm-.21-11.97c2.03,0,3.58,1.3,3.74,3.11h-7.54c.23-1.81,1.8-3.11,3.8-3.11Z"/><path class="cls-1" d="M114.21,39.36c3.59,0,5.82-1.67,5.82-4.36,0-3.19-2.9-3.94-5.23-4.55-1.61-.42-3-.78-3-1.8,0-.82,.87-1.4,2.11-1.4,1.36,0,2.3,.72,2.46,1.87l.1,.58h.06s2.86-.54,2.86-.54c0-2.68-2.37-4.56-5.45-4.56s-5.38,1.75-5.38,4.25c0,3.03,2.81,3.78,5.07,4.38,1.64,.44,3.05,.82,3.05,1.88,0,.93-.91,1.5-2.37,1.5-1.76,0-2.94-.82-3.09-2.14l-.03-.22-3.03,.57c.02,2.97,3.3,4.54,6.05,4.54Z"/><path class="cls-1" d="M122.59,36.46c0,1.6,1.01,2.9,2.69,2.9,2.08,0,2.69-.27,2.69-.27v-2.69s-.62,.1-1.38,.1c-.49,0-.84-.3-.84-.74v-8.16h2.2l-.03-2.72h-2.16v-4.04l-3.16,.79v3.25h-1.65v2.72s1.65,0,1.65,0v8.86h-.01Z"/><path class="cls-1" d="M147.37,26.68v-1.8h-2.78v14.21h3.34l-.03-8.69c.04-.87,.34-1.54,.87-1.99,.7-.59,1.8-.79,3.25-.59l.17,.02,.03-2.96-.14-.02c-1.99-.28-3.8,.33-4.71,1.82Z"/><path class="cls-1" d="M161.31,24.59c-2.01,0-3.89,.8-4.83,2.32v-2.03h-2.89v14.21h3.37v-7.63c0-2.45,1.28-3.91,3.43-3.91,1.47,0,3.22,.64,3.22,3.7v7.84h3.37v-8.3c0-4.57-2.94-6.2-5.67-6.2Z"/><path class="cls-1" d="M185.09,31.09c0,3.28-1.56,5.09-4.38,5.09s-4.35-1.81-4.35-5.09v-11.32h-3.4v11.24c0,5.23,2.9,8.35,7.75,8.35s7.75-3.12,7.75-8.35v-11.24h-3.37v11.32Z"/><path class="cls-1" d="M198.19,24.59c-2.01,0-3.9,.8-4.83,2.32v-2.03h-2.9v14.21h3.37v-7.63c0-2.45,1.28-3.91,3.43-3.91,1.47,0,3.22,.64,3.22,3.7v7.84h3.37v-8.3c.01-4.57-2.92-6.2-5.66-6.2Z"/><rect class="cls-1" x="205.95" y="24.88" width="3.34" height="14.21"/><path class="cls-1" d="M207.63,19.64c-1.09,0-1.95,.84-1.95,1.92s.87,1.89,1.95,1.89,1.92-.85,1.92-1.89c0-1.06-.86-1.92-1.92-1.92Z"/><path class="cls-1" d="M218.34,24.59c-2.08,0-3.98,.75-5.36,2.1-1.37,1.36-2.13,3.23-2.13,5.28,0,4.28,3.15,7.39,7.49,7.39s7.51-3.11,7.51-7.39c0-2.05-.76-3.93-2.13-5.28-1.38-1.36-3.29-2.1-5.38-2.1Zm0,11.7c-2.41,0-4.22-1.86-4.22-4.32s1.81-4.32,4.22-4.32,4.27,1.86,4.27,4.32-1.84,4.32-4.27,4.32Z"/><path class="cls-1" d="M235.13,24.59c-2.01,0-3.89,.8-4.83,2.32v-2.03h-2.9v14.21h3.37v-7.63c0-2.45,1.28-3.91,3.43-3.91,1.47,0,3.22,.64,3.22,3.7v7.84h3.37v-8.3c.01-4.57-2.92-6.2-5.66-6.2Z"/><path class="cls-1" d="M135.98,24.59c-2.01,0-3.84,.76-5.15,2.13-1.3,1.36-2.02,3.24-2.02,5.28,0,4.33,3.03,7.36,7.38,7.36,2.79,0,5.43-1.52,6.49-3.79l-2.55-1.3h-.05s-.05,.09-.05,.09c-.31,.64-1.44,2.13-3.81,2.13-2.15,0-3.79-1.37-4.04-3.36h10.97v-.15c.07-2.71-.67-4.93-2.13-6.42-1.26-1.29-3.01-1.97-5.04-1.97Zm-3.81,5.91c.23-1.81,1.8-3.11,3.81-3.11s3.58,1.3,3.74,3.11h-7.55Z"/></g></svg>